<svg viewBox="0 0 24 24" xmlns="http://www.w3.org/2000/svg"><g display="inline"><path d="M8.791 1.602c-2.376 0-4.416 2.061-4.416 4.591v.002c-1.663.584-2.924 2.051-2.924 3.912a4.274 4.274 0 0 0 4.274 4.272H11.5v3.978a2.063 2.063 0 0 0-1.486 1.485H5.51a2.061 2.061 0 0 0-1.987-1.555 2.06 2.06 0 0 0-2.052 2.055 2.06 2.06 0 0 0 2.052 2.055c.955 0 1.76-.666 1.987-1.553h4.504A2.062 2.062 0 0 0 12 22.397c.955 0 1.76-.666 1.986-1.553h4.504a2.062 2.062 0 0 0 1.987 1.553 2.06 2.06 0 0 0 2.052-2.055 2.06 2.06 0 0 0-2.052-2.055c-.956 0-1.76.667-1.987 1.555h-4.504a2.063 2.063 0 0 0-1.486-1.485V14.38h6.568c1.919 0 3.48-1.56 3.48-3.479 0-1.708-1.258-3.073-2.884-3.363-.206-2.125-1.945-3.814-4.123-3.814-.864 0-1.661.334-2.361.822-.687-1.731-2.344-2.943-4.389-2.943ZM3.523 19.289c.589 0 1.057.465 1.057 1.053a1.05 1.05 0 0 1-1.057 1.054 1.046 1.046 0 0 1-1.052-1.054c0-.588.464-1.053 1.052-1.053zm8.477 0c.588 0 1.055.465 1.055 1.053 0 .588-.467 1.054-1.055 1.054a1.047 1.047 0 0 1-1.055-1.054c0-.588.467-1.053 1.055-1.053zm8.477 0c.588 0 1.052.465 1.052 1.053 0 .588-.464 1.054-1.052 1.054a1.05 1.05 0 0 1-1.057-1.054c0-.588.468-1.053 1.057-1.053z" style="line-height:normal;font-variant-ligatures:normal;font-variant-position:normal;font-variant-caps:normal;font-variant-numeric:normal;font-variant-alternates:normal;font-variant-east-asian:normal;font-feature-settings:normal;font-variation-settings:normal;text-indent:0;text-align:start;text-decoration-line:none;text-decoration-style:solid;text-decoration-color:#000;text-transform:none;text-orientation:mixed;white-space:normal;shape-padding:0;shape-margin:0;inline-size:0;isolation:auto;mix-blend-mode:normal;solid-color:#000;solid-opacity:1" transform="translate(0 .001)" color="#000000" font-style="normal" font-variant="normal" font-weight="400" font-stretch="normal" font-size="medium" font-family="sans-serif" text-decoration="none" letter-spacing="normal" word-spacing="normal" writing-mode="lr-tb" direction="ltr" dominant-baseline="auto" baseline-shift="baseline" text-anchor="start" clip-rule="nonzero" display="inline" overflow="visible" visibility="visible" color-interpolation="sRGB" color-interpolation-filters="linearRGB" vector-effect="none" fill="#1ddba2" fill-opacity="1" fill-rule="nonzero" stroke="none" stroke-width="1" stroke-linecap="square" stroke-linejoin="miter" stroke-miterlimit="4" stroke-dasharray="none" stroke-dashoffset="0" stroke-opacity="1" paint-order="fill markers stroke" color-rendering="auto" image-rendering="auto" shape-rendering="auto" text-rendering="auto" enable-background="accumulate" stop-color="#1ddba2" class="fill-000000 stop-color-000000"></path></g></svg>